<?xml version="1.0" standalone="no"?>
<!DOCTYPE svg PUBLIC "-//W3C//DTD SVG 20010904//EN"
 "http://www.w3.org/TR/2001/REC-SVG-20010904/DTD/svg10.dtd">
<svg version="1.0" xmlns="http://www.w3.org/2000/svg"
 width="700.000000pt" height="700.000000pt" viewBox="0 0 700.000000 700.000000"
 preserveAspectRatio="xMidYMid meet">
<metadata>
Created by potrace 1.14, written by Peter Selinger 2001-2017
</metadata>
<g transform="translate(0.000000,700.000000) scale(0.100000,-0.100000)"
fill="#000000" stroke="none">
<path d="M3229 5456 c-2 -2 -33 -7 -69 -10 -104 -9 -144 -15 -330 -52 -55 -11
-141 -35 -242 -68 -613 -201 -1107 -612 -1348 -1119 -116 -245 -163 -445 -163
-697 -1 -231 23 -385 90 -580 161 -466 552 -888 1061 -1146 174 -88 403 -172
545 -200 10 -2 27 -6 37 -9 10 -3 29 -8 42 -10 13 -3 46 -9 73 -15 260 -51
688 -60 931 -20 32 6 75 13 94 16 84 13 285 66 398 104 120 41 123 41 146 23
299 -234 505 -325 861 -378 48 -7 274 -7 330 0 85 11 113 16 210 40 144 34
303 97 379 148 15 11 36 38 46 60 34 76 3 156 -80 201 -154 84 -335 251 -433
398 -63 94 -124 218 -156 317 -27 83 -43 107 -89 130 -96 49 -209 -13 -216
-120 -3 -52 33 -160 105 -314 35 -76 116 -201 183 -285 62 -77 204 -220 218
-220 4 0 8 -4 8 -9 0 -8 -11 -11 -150 -36 -108 -20 -339 -13 -458 14 -241 54
-431 160 -636 357 -23 22 -76 44 -106 44 -17 0 -58 -12 -93 -26 -233 -96 -458
-154 -719 -183 -97 -11 -476 -6 -558 7 -36 6 -83 13 -105 17 -367 53 -759 224
-1050 460 -310 251 -533 603 -585 925 -6 41 -14 89 -17 105 -11 67 -4 295 12
385 93 541 538 1033 1155 1278 631 250 1378 217 1992 -88 429 -213 758 -585
837 -945 49 -221 -5 -585 -101 -692 -16 -17 -23 -19 -32 -10 -19 20 -62 126
-95 237 -18 58 -46 150 -62 205 -89 296 -160 461 -234 543 -65 72 -127 87
-207 48 -158 -76 -232 -340 -263 -941 -6 -110 -7 -124 -20 -265 -9 -111 -45
-240 -66 -240 -19 0 -99 126 -194 305 -189 356 -300 495 -448 564 -155 71
-289 41 -423 -93 -103 -105 -178 -227 -340 -553 -79 -161 -148 -293 -154 -293
-32 0 -90 190 -126 420 -3 19 -7 46 -10 60 -7 40 -23 142 -29 185 -4 22 -8 51
-10 64 -2 13 -7 45 -11 70 -4 25 -8 55 -11 66 -2 11 -8 43 -13 70 -16 88 -21
109 -32 150 -5 22 -12 49 -14 60 -9 46 -48 154 -76 212 -52 106 -127 163 -208
158 -74 -5 -103 -17 -151 -66 -98 -100 -188 -356 -263 -749 -17 -93 -32 -144
-59 -205 -49 -113 -50 -128 -12 -165 41 -39 97 -49 146 -26 94 46 164 222 285
714 15 61 31 112 35 112 7 0 26 -65 34 -115 2 -16 9 -59 14 -95 6 -36 17 -123
26 -195 9 -71 18 -141 20 -155 6 -46 17 -115 21 -135 2 -11 6 -31 9 -45 7 -35
12 -58 25 -115 6 -27 13 -57 15 -65 2 -8 15 -51 30 -95 69 -207 173 -347 305
-410 53 -25 63 -27 97 -17 21 6 64 34 95 62 99 88 180 212 364 557 180 336
214 383 278 383 61 0 146 -105 256 -315 100 -189 138 -261 170 -315 90 -154
189 -260 270 -291 102 -39 245 5 314 96 23 30 59 122 69 176 33 175 35 187 52
377 3 31 8 77 10 102 2 25 7 77 10 115 11 134 16 190 20 225 2 19 7 62 11 95
9 83 9 83 23 149 7 32 17 54 21 50 5 -5 45 -117 90 -249 100 -299 130 -375
192 -496 82 -160 167 -239 256 -239 97 0 207 75 276 188 34 57 91 191 100 234
2 13 12 52 21 88 11 42 18 121 20 225 5 219 -12 335 -75 525 -108 321 -379
641 -730 860 -298 186 -714 332 -1075 375 -27 4 -61 9 -75 12 -29 6 -505 14
-511 9z"/>
</g>
</svg>
